<svg role="img" viewBox="0 0 24 24" xmlns="http://www.w3.org/2000/svg"><title>Agda</title><path d="M10.089 1.943a.4.4 0 0 0-.121.01.35.35 0 0 0-.157.091L5.928 5.928a.35.35 0 0 0 0 .494.35.35 0 0 0 .494 0l3.883-3.884a.35.35 0 0 0 0-.494.35.35 0 0 0-.216-.1m1.941 0a.4.4 0 0 0-.12.01.35.35 0 0 0-.157.091L7.869 5.928a.35.35 0 0 0 0 .494.35.35 0 0 0 .495 0l3.883-3.884a.35.35 0 0 0 0-.494.35.35 0 0 0-.217-.1m11.65 0a.4.4 0 0 0-.12.01.35.35 0 0 0-.157.091L19.52 5.928a.35.35 0 0 0 0 .494.35.35 0 0 0 .494 0l3.884-3.884a.35.35 0 0 0 0-.494.35.35 0 0 0-.217-.1m-15.654.01a.35.35 0 0 0-.157.091L.102 9.811a.35.35 0 0 0 .248.597h3.533v3.534c0 4.462 3.655 8.116 8.117 8.116s8.116-3.654 8.116-8.116v-3.739l3.782-3.781a.35.35 0 0 0 0-.494.35.35 0 0 0-.495 0L19.52 9.81a.35.35 0 0 0-.103.247v3.884c0 4.081-3.336 7.417-7.417 7.417s-7.417-3.336-7.417-7.417v-3.884a.35.35 0 0 0-.35-.35h-3.04l7.17-7.17a.35.35 0 0 0 0-.494.35.35 0 0 0-.337-.09m11.65 0a.35.35 0 0 0-.156.091l-7.767 7.767a.35.35 0 0 0 0 .494.35.35 0 0 0 .494 0l7.767-7.767a.35.35 0 0 0 0-.494.35.35 0 0 0-.337-.09m4.005 1.932a.4.4 0 0 0-.121.01.35.35 0 0 0-.157.09L19.52 7.87a.35.35 0 0 0 0 .495.35.35 0 0 0 .494 0l3.884-3.884a.35.35 0 0 0 0-.494.35.35 0 0 0-.217-.101M5.01 7.01a.524.524 0 0 0-.525.524.524.524 0 0 0 .525.524.524.524 0 0 0 .524-.524.524.524 0 0 0-.524-.524m1.941 0a.524.524 0 0 0-.524.524.524.524 0 0 0 .524.524.524.524 0 0 0 .525-.524.524.524 0 0 0-.525-.524"/></svg>